<?xml version="1.0" encoding="iso-8859-1"?>
<!-- Generator: Adobe Illustrator 19.0.0, SVG Export Plug-In . SVG Version: 6.00 Build 0)  -->
<svg version="1.1" id="Layer_1" xmlns="http://www.w3.org/2000/svg" xmlns:xlink="http://www.w3.org/1999/xlink" x="0px" y="0px"
	 viewBox="0 0 509.287 509.287" style="enable-background:new 0 0 509.287 509.287;" xml:space="preserve">
<circle style="fill:#F7CFA2;" cx="254.644" cy="254.644" r="254.644"/>
<path style="fill:#F1F3F7;" d="M254.644,451.984l-170.893-98.67v-197.34l170.893-98.67l170.893,98.67v197.34L254.644,451.984z
	 M106.469,340.429l148.175,85.446l148.175-85.785V168.858L254.644,83.412l-148.175,85.446V340.429z"/>
<rect x="235.656" y="237.69" style="fill:#F0BA7A;" width="37.976" height="27.804"/>
<circle style="fill:#4F5565;" cx="254.644" cy="194.628" r="43.062"/>
<polygon style="fill:#DEDEDF;" points="229.891,255.661 254.644,257.017 279.396,255.661 273.632,336.021 235.656,336.021 "/>
<polygon style="fill:#F0582F;" points="248.879,273.971 241.759,320.085 254.644,336.021 267.528,320.085 260.408,273.971 "/>
<path style="fill:#4B5AA7;" d="M229.891,255.661c-1.695,0.678-55.947,24.752-55.947,24.752l-12.885,55.608h93.923L229.891,255.661z"
	/>
<polygon style="fill:#257DC0;" points="229.891,255.661 219.041,260.408 202.426,285.838 218.024,291.264 204.122,307.2 
	235.656,336.021 254.644,336.021 "/>
<path style="fill:#4B5AA7;" d="M279.396,255.661c1.695,0.678,55.947,24.752,55.947,24.752l12.885,55.608h-93.584L279.396,255.661z"
	/>
<polygon style="fill:#257DC0;" points="279.396,255.661 290.246,260.408 306.861,285.838 291.264,291.264 305.166,307.2 
	273.632,336.021 254.644,336.021 "/>
<polygon style="fill:#D54232;" points="257.695,257.017 251.592,257.017 241.759,267.189 248.879,273.971 260.408,273.971 
	267.528,267.189 "/>
<g>
	<polygon style="fill:#F1F3F7;" points="229.891,255.661 235.317,246.506 254.644,257.017 240.403,276.005 	"/>
	<polygon style="fill:#F1F3F7;" points="279.396,255.661 273.971,246.506 254.644,257.017 268.885,276.005 	"/>
</g>
<path style="fill:#4F5565;" d="M225.483,193.611c0,0,30.177,1.695,42.723-16.954c0,0,3.73,10.85,14.241,15.258v15.258h5.086
	c0-1.356,0-3.052,0-4.408c0-24.413-14.919-43.74-33.229-43.74s-33.229,19.666-33.229,43.74c0,1.356,0,3.052,0,4.408h3.73v-13.563
	H225.483z"/>
<path style="fill:#F7CFA2;" d="M282.448,206.834v-14.919c-10.511-4.069-14.241-15.258-14.241-15.258
	c-12.885,18.649-42.723,16.954-42.723,16.954v13.563h-3.73c1.695,22.04,15.936,39.672,32.89,39.672s31.195-17.293,32.89-39.672
	h-5.086V206.834z"/>
<circle style="fill:#6EB1E1;" cx="254.644" cy="70.188" r="42.384"/>
<circle style="fill:#646B79;" cx="254.644" cy="439.099" r="42.384"/>
<circle style="fill:#FBD303;" cx="94.94" cy="162.416" r="42.384"/>
<circle style="fill:#F0582F;" cx="414.347" cy="346.872" r="42.384"/>
<circle style="fill:#71D456;" cx="94.94" cy="346.872" r="42.384"/>
<circle style="fill:#886C60;" cx="414.347" cy="162.416" r="42.384"/>
<g>
</g>
<g>
</g>
<g>
</g>
<g>
</g>
<g>
</g>
<g>
</g>
<g>
</g>
<g>
</g>
<g>
</g>
<g>
</g>
<g>
</g>
<g>
</g>
<g>
</g>
<g>
</g>
<g>
</g>
</svg>
